<svg width="65" height="81" viewBox="0 0 65 81" fill="none" xmlns="http://www.w3.org/2000/svg">
<path id="Vector" d="M32.5 81C23.0885 78.6375 15.3183 73.2537 9.18938 64.8486C3.06042 56.4435 -0.00270654 47.1123 1.79439e-06 36.855V12.15L32.5 0L65 12.15V36.855C65 47.115 61.9355 56.4476 55.8066 64.8527C49.6776 73.2578 41.9087 78.6402 32.5 81ZM32.5 60.75C38.1198 60.75 42.9108 58.775 46.8731 54.8249C50.8354 50.8748 52.8152 46.0998 52.8125 40.5C52.8125 34.8975 50.8314 30.1212 46.8691 26.1711C42.9068 22.221 38.1171 20.2473 32.5 20.25C26.8802 20.25 22.0892 22.2251 18.1269 26.1752C14.1646 30.1253 12.1848 34.9002 12.1875 40.5C12.1875 46.1025 14.1686 50.8788 18.1309 54.8289C22.0932 58.779 26.8829 60.7527 32.5 60.75ZM39.2031 50.0175L30.4688 41.31V28.35H34.5312V39.69L42.0469 47.1825L39.2031 50.0175Z" fill="#412732"/>
</svg>
