<svg width="92" height="92" viewBox="0 0 92 92" fill="none" xmlns="http://www.w3.org/2000/svg">
<g id="Group">
<path id="Vector" fill-rule="evenodd" clip-rule="evenodd" d="M42.809 8.48614C44.3217 7.92016 45.9745 7.84637 47.5317 8.27531L48.191 8.48614L75.0243 18.5486C76.3849 19.0588 77.5724 19.9451 78.4486 21.1043C79.3248 22.2635 79.8535 23.6478 79.9732 25.096L80 25.7285V46.2866C79.9998 52.4983 78.3227 58.5946 75.1455 63.9322C71.9683 69.2698 67.409 73.6506 61.9488 76.6121L60.9292 77.145L48.0722 83.5735C47.3642 83.9269 46.591 84.1305 45.8008 84.1714C45.0106 84.2123 44.2205 84.0896 43.4798 83.8111L42.9278 83.5735L30.0708 77.145C24.5148 74.3669 19.812 70.1403 16.4587 64.9113C13.1054 59.6824 11.2261 53.645 11.0192 47.4366L11 46.2866V25.7285C11 24.2761 11.4126 22.8537 12.1896 21.6267C12.9667 20.3997 14.0762 19.4187 15.3892 18.7978L15.9757 18.5486L42.809 8.48614ZM58.6598 33.1498L41.0342 50.7755L34.2568 43.9981C33.5375 43.2794 32.5622 42.8758 31.5453 42.8761C30.5284 42.8765 29.5534 43.2808 28.8346 44.0001C28.1158 44.7193 27.7122 45.6947 27.7126 46.7116C27.7129 47.7284 28.1172 48.7035 28.8365 49.4223L38.0518 58.6376C38.4434 59.0294 38.9083 59.3402 39.4201 59.5522C39.9318 59.7642 40.4803 59.8734 41.0342 59.8734C41.5881 59.8734 42.1366 59.7642 42.6483 59.5522C43.16 59.3402 43.6249 59.0294 44.0165 58.6376L64.0802 38.5701C64.4463 38.2165 64.7383 37.7935 64.9392 37.3259C65.1401 36.8582 65.2459 36.3552 65.2503 35.8462C65.2547 35.3372 65.1577 34.8324 64.965 34.3613C64.7722 33.8902 64.4876 33.4622 64.1277 33.1023C63.7678 32.7424 63.3398 32.4577 62.8687 32.265C62.3976 32.0722 61.8928 31.9753 61.3838 31.9797C60.8748 31.9841 60.3718 32.0899 59.9041 32.2908C59.4364 32.4917 59.0134 32.7837 58.6598 33.1498Z" fill="#412732"/>
</g>
</svg>
