<svg width="50" height="50" viewBox="0 0 104 98" fill="none" xmlns="http://www.w3.org/2000/svg">
<g id="Group 38753">
<rect id="Rectangle 547" x="1.5" y="1.5" width="101" height="95" rx="3.5" stroke="white" stroke-width="3"/>
<path id="Vector" d="M35.8011 62H68.202C68.53 61.999 68.8516 61.9083 69.132 61.7378C69.4125 61.5674 69.6412 61.3235 69.7936 61.0325C69.946 60.7415 70.0163 60.4143 69.9968 60.0863C69.9774 59.7582 69.8691 59.4417 69.6834 59.1708L53.483 35.7289C52.8116 34.757 51.1951 34.757 50.5219 35.7289L34.3214 59.1708C34.1339 59.4411 34.024 59.7578 34.0035 60.0864C33.983 60.415 34.0528 60.7429 34.2054 61.0346C34.3579 61.3262 34.5873 61.5704 34.8686 61.7406C35.1499 61.9108 35.4724 62.0005 35.8011 62Z" fill="white"/>
</g>
</svg>
