<svg width="28" height="29" viewBox="0 0 34 35" fill="none" xmlns="http://www.w3.org/2000/svg">
<g id="ant-design:twitter-circle-filled">
<path id="Vector" d="M17.0999 2.79968C8.98209 2.79968 2.3999 9.38187 2.3999 17.4997C2.3999 25.6175 8.98209 32.1997 17.0999 32.1997C25.2177 32.1997 31.7999 25.6175 31.7999 17.4997C31.7999 9.38187 25.2177 2.79968 17.0999 2.79968ZM24.1644 13.8805C24.1743 14.0347 24.1743 14.1955 24.1743 14.353C24.1743 19.1698 20.5058 24.7184 13.8022 24.7184C11.7351 24.7184 9.81881 24.118 8.20443 23.0844C8.49975 23.1172 8.78193 23.1303 9.08381 23.1303C10.7901 23.1303 12.3585 22.5528 13.6087 21.575C12.0074 21.5422 10.6621 20.4922 10.2027 19.0484C10.7638 19.1305 11.2691 19.1305 11.8466 18.9828C11.0221 18.8153 10.2811 18.3675 9.7493 17.7155C9.21754 17.0636 8.92791 16.2476 8.92959 15.4062V15.3603C9.41193 15.6327 9.97959 15.8 10.5735 15.823C10.0742 15.4902 9.66478 15.0394 9.38145 14.5106C9.09813 13.9817 8.94968 13.3911 8.94928 12.7911C8.94928 12.1119 9.12647 11.4917 9.44475 10.9536C10.3599 12.0802 11.5019 13.0016 12.7964 13.6579C14.091 14.3142 15.5092 14.6908 16.9588 14.7631C16.4437 12.2858 18.2943 10.2809 20.519 10.2809C21.569 10.2809 22.514 10.7206 23.1801 11.4294C24.0037 11.2752 24.7912 10.9667 25.4933 10.5533C25.221 11.3966 24.6501 12.1086 23.8921 12.5581C24.6271 12.4794 25.3358 12.2759 25.9921 11.9905C25.4966 12.7189 24.8765 13.3653 24.1644 13.8805Z" fill="#F8F8F8"/>
</g>
</svg>
