<svg width="28" height="29" viewBox="0 0 34 35" fill="none" xmlns="http://www.w3.org/2000/svg">
<g id="Group 38736">
<g id="Group 38737">
<circle id="Ellipse 801" cx="16.8996" cy="17.5" r="16.8" fill="#F8F8F8"/>
<g id="Group 38738">
<g id="Vector">
<mask id="path-2-inside-1_308_1888" fill="white">
<path d="M9.79961 23.7C9.33211 23.7 8.93176 23.5407 8.59856 23.2222C8.26536 22.9037 8.09904 22.5213 8.09961 22.075V12.325C8.09961 11.8781 8.26621 11.4954 8.59941 11.1769C8.93261 10.8584 9.33268 10.6994 9.79961 10.7H23.3996C23.8671 10.7 24.2675 10.8592 24.6007 11.1777C24.9339 11.4962 25.1002 11.8786 25.0996 12.325V22.075C25.0996 22.5218 24.933 22.9045 24.5998 23.223C24.2666 23.5415 23.8665 23.7005 23.3996 23.7H9.79961ZM16.5996 18.0125L9.79961 13.95V22.075H23.3996V13.95L16.5996 18.0125ZM16.5996 16.3875L23.3996 12.325H9.79961L16.5996 16.3875ZM9.79961 13.95V12.325V22.075V13.95Z"/>
</mask>
<path d="M9.79961 23.7C9.33211 23.7 8.93176 23.5407 8.59856 23.2222C8.26536 22.9037 8.09904 22.5213 8.09961 22.075V12.325C8.09961 11.8781 8.26621 11.4954 8.59941 11.1769C8.93261 10.8584 9.33268 10.6994 9.79961 10.7H23.3996C23.8671 10.7 24.2675 10.8592 24.6007 11.1777C24.9339 11.4962 25.1002 11.8786 25.0996 12.325V22.075C25.0996 22.5218 24.933 22.9045 24.5998 23.223C24.2666 23.5415 23.8665 23.7005 23.3996 23.7H9.79961ZM16.5996 18.0125L9.79961 13.95V22.075H23.3996V13.95L16.5996 18.0125ZM16.5996 16.3875L23.3996 12.325H9.79961L16.5996 16.3875ZM9.79961 13.95V12.325V22.075V13.95Z" fill="black"/>
<path d="M7.29961 13.95V22.075H12.2996V13.95H7.29961ZM8.09961 22.075L13.0996 22.0813V22.075H8.09961ZM9.79961 10.7L9.79381 15.7H9.79961V10.7ZM25.0996 12.325L20.0996 12.3186V12.325H25.0996ZM23.3996 23.7L23.4054 18.7H23.3996V23.7ZM16.5996 18.0125L14.0353 22.3048L16.5996 23.8368L19.164 22.3048L16.5996 18.0125ZM9.79961 13.95H4.79961V16.7872L7.23526 18.2423L9.79961 13.95ZM9.79961 22.075H4.79961V27.075H9.79961V22.075ZM23.3996 22.075V27.075H28.3996V22.075H23.3996ZM23.3996 13.95H28.3996V5.13848L20.8353 9.65762L23.3996 13.95ZM16.5996 16.3875L14.0353 20.6798L16.5996 22.2118L19.164 20.6798L16.5996 16.3875ZM23.3996 12.325L25.964 16.6173L41.5179 7.32495H23.3996V12.325ZM9.79961 12.325V7.32495H4.79961V12.325H9.79961ZM9.79961 18.7C10.1446 18.7 10.5606 18.7611 10.9968 18.9346C11.4342 19.1086 11.7884 19.3545 12.0535 19.6078L5.14365 26.8366C6.42189 28.0584 8.06549 28.7 9.79961 28.7V18.7ZM12.0535 19.6078C12.3168 19.8596 12.6003 20.2224 12.8091 20.7024C13.0193 21.1859 13.1001 21.6653 13.0996 22.0813L3.09961 22.0686C3.09725 23.9319 3.85842 25.608 5.14365 26.8366L12.0535 19.6078ZM13.0996 22.075V12.325H3.09961V22.075H13.0996ZM13.0996 12.325C13.0996 12.739 13.0188 13.2166 12.809 13.6986C12.6006 14.1772 12.3177 14.5395 12.0543 14.7913L5.1445 7.56253C3.85942 8.79092 3.09961 10.4652 3.09961 12.325H13.0996ZM12.0543 14.7913C11.7893 15.0446 11.4346 15.291 10.9958 15.4653C10.5583 15.6392 10.1406 15.7004 9.79381 15.6999L9.80541 5.69996C8.06813 5.69794 6.42297 6.34047 5.1445 7.56253L12.0543 14.7913ZM9.79961 15.7H23.3996V5.69995H9.79961V15.7ZM23.3996 15.7C23.0546 15.7 22.6386 15.6388 22.2025 15.4653C21.765 15.2913 21.4108 15.0454 21.1458 14.7921L28.0556 7.56334C26.7773 6.34149 25.1337 5.69995 23.3996 5.69995V15.7ZM21.1458 14.7921C20.8824 14.5403 20.5989 14.1775 20.3902 13.6975C20.1799 13.214 20.0991 12.7346 20.0996 12.3186L30.0996 12.3313C30.102 10.468 29.3408 8.79187 28.0556 7.56334L21.1458 14.7921ZM20.0996 12.325V22.075H30.0996V12.325H20.0996ZM20.0996 22.075C20.0996 21.6609 20.1804 21.1833 20.3902 20.7013C20.5986 20.2228 20.8815 19.8604 21.1449 19.6086L28.0547 26.8374C29.3398 25.609 30.0996 23.9347 30.0996 22.075H20.0996ZM21.1449 19.6086C21.4099 19.3553 21.7647 19.1089 22.2034 18.9346C22.641 18.7607 23.0586 18.6996 23.4054 18.7L23.3938 28.6999C25.1311 28.702 26.7763 28.0594 28.0547 26.8374L21.1449 19.6086ZM23.3996 18.7H9.79961V28.7H23.3996V18.7ZM19.164 13.7201L12.364 9.65762L7.23526 18.2423L14.0353 22.3048L19.164 13.7201ZM9.79961 27.075H23.3996V17.075H9.79961V27.075ZM28.3996 22.075V13.95H18.3996V22.075H28.3996ZM20.8353 9.65762L14.0353 13.7201L19.164 22.3048L25.964 18.2423L20.8353 9.65762ZM19.164 20.6798L25.964 16.6173L20.8353 8.03262L14.0353 12.0951L19.164 20.6798ZM23.3996 7.32495H9.79961V17.325H23.3996V7.32495ZM7.23526 16.6173L14.0353 20.6798L19.164 12.0951L12.364 8.03262L7.23526 16.6173ZM14.7996 13.95V12.325H4.79961V13.95H14.7996ZM4.79961 12.325V22.075H14.7996V12.325H4.79961Z" fill="black" mask="url(#path-2-inside-1_308_1888)"/>
</g>
<g id="Vector_2">
<mask id="path-4-inside-2_308_1888" fill="white">
<path d="M10.7996 23.7C10.3321 23.7 9.93176 23.5407 9.59856 23.2222C9.26536 22.9037 9.09904 22.5213 9.09961 22.075V12.325C9.09961 11.8781 9.26621 11.4954 9.59941 11.1769C9.93261 10.8584 10.3327 10.6994 10.7996 10.7H24.3996C24.8671 10.7 25.2675 10.8592 25.6007 11.1777C25.9339 11.4962 26.1002 11.8786 26.0996 12.325V22.075C26.0996 22.5218 25.933 22.9045 25.5998 23.223C25.2666 23.5415 24.8665 23.7005 24.3996 23.7H10.7996ZM17.5996 18.0125L10.7996 13.95V22.075H24.3996V13.95L17.5996 18.0125ZM17.5996 16.3875L24.3996 12.325H10.7996L17.5996 16.3875ZM10.7996 13.95V12.325V22.075V13.95Z"/>
</mask>
<path d="M10.7996 23.7C10.3321 23.7 9.93176 23.5407 9.59856 23.2222C9.26536 22.9037 9.09904 22.5213 9.09961 22.075V12.325C9.09961 11.8781 9.26621 11.4954 9.59941 11.1769C9.93261 10.8584 10.3327 10.6994 10.7996 10.7H24.3996C24.8671 10.7 25.2675 10.8592 25.6007 11.1777C25.9339 11.4962 26.1002 11.8786 26.0996 12.325V22.075C26.0996 22.5218 25.933 22.9045 25.5998 23.223C25.2666 23.5415 24.8665 23.7005 24.3996 23.7H10.7996ZM17.5996 18.0125L10.7996 13.95V22.075H24.3996V13.95L17.5996 18.0125ZM17.5996 16.3875L24.3996 12.325H10.7996L17.5996 16.3875ZM10.7996 13.95V12.325V22.075V13.95Z" fill="black"/>
<path d="M8.29961 13.95V22.075H13.2996V13.95H8.29961ZM9.09961 22.075L14.0996 22.0813V22.075H9.09961ZM10.7996 10.7L10.7938 15.7H10.7996V10.7ZM26.0996 12.325L21.0996 12.3186V12.325H26.0996ZM24.3996 23.7L24.4054 18.7H24.3996V23.7ZM17.5996 18.0125L15.0353 22.3048L17.5996 23.8368L20.164 22.3048L17.5996 18.0125ZM10.7996 13.95H5.79961V16.7872L8.23526 18.2423L10.7996 13.95ZM10.7996 22.075H5.79961V27.075H10.7996V22.075ZM24.3996 22.075V27.075H29.3996V22.075H24.3996ZM24.3996 13.95H29.3996V5.13848L21.8353 9.65762L24.3996 13.95ZM17.5996 16.3875L15.0353 20.6798L17.5996 22.2118L20.164 20.6798L17.5996 16.3875ZM24.3996 12.325L26.964 16.6173L42.5179 7.32495H24.3996V12.325ZM10.7996 12.325V7.32495H5.79961V12.325H10.7996ZM10.7996 18.7C11.1446 18.7 11.5606 18.7611 11.9968 18.9346C12.4342 19.1086 12.7884 19.3545 13.0535 19.6078L6.14365 26.8366C7.42189 28.0584 9.06549 28.7 10.7996 28.7V18.7ZM13.0535 19.6078C13.3168 19.8596 13.6003 20.2224 13.8091 20.7024C14.0193 21.1859 14.1001 21.6653 14.0996 22.0813L4.09961 22.0686C4.09725 23.9319 4.85842 25.608 6.14365 26.8366L13.0535 19.6078ZM14.0996 22.075V12.325H4.09961V22.075H14.0996ZM14.0996 12.325C14.0996 12.739 14.0188 13.2166 13.809 13.6986C13.6006 14.1772 13.3177 14.5395 13.0543 14.7913L6.1445 7.56253C4.85942 8.79092 4.09961 10.4652 4.09961 12.325H14.0996ZM13.0543 14.7913C12.7893 15.0446 12.4346 15.291 11.9958 15.4653C11.5583 15.6392 11.1406 15.7004 10.7938 15.6999L10.8054 5.69996C9.06813 5.69794 7.42297 6.34047 6.1445 7.56253L13.0543 14.7913ZM10.7996 15.7H24.3996V5.69995H10.7996V15.7ZM24.3996 15.7C24.0546 15.7 23.6386 15.6388 23.2025 15.4653C22.765 15.2913 22.4108 15.0454 22.1458 14.7921L29.0556 7.56334C27.7773 6.34149 26.1337 5.69995 24.3996 5.69995V15.7ZM22.1458 14.7921C21.8824 14.5403 21.5989 14.1775 21.3902 13.6975C21.1799 13.214 21.0991 12.7346 21.0996 12.3186L31.0996 12.3313C31.102 10.468 30.3408 8.79187 29.0556 7.56334L22.1458 14.7921ZM21.0996 12.325V22.075H31.0996V12.325H21.0996ZM21.0996 22.075C21.0996 21.6609 21.1804 21.1833 21.3902 20.7013C21.5986 20.2228 21.8815 19.8604 22.1449 19.6086L29.0547 26.8374C30.3398 25.609 31.0996 23.9347 31.0996 22.075H21.0996ZM22.1449 19.6086C22.4099 19.3553 22.7647 19.1089 23.2034 18.9346C23.641 18.7607 24.0586 18.6996 24.4054 18.7L24.3938 28.6999C26.1311 28.702 27.7763 28.0594 29.0547 26.8374L22.1449 19.6086ZM24.3996 18.7H10.7996V28.7H24.3996V18.7ZM20.164 13.7201L13.364 9.65762L8.23526 18.2423L15.0353 22.3048L20.164 13.7201ZM10.7996 27.075H24.3996V17.075H10.7996V27.075ZM29.3996 22.075V13.95H19.3996V22.075H29.3996ZM21.8353 9.65762L15.0353 13.7201L20.164 22.3048L26.964 18.2423L21.8353 9.65762ZM20.164 20.6798L26.964 16.6173L21.8353 8.03262L15.0353 12.0951L20.164 20.6798ZM24.3996 7.32495H10.7996V17.325H24.3996V7.32495ZM8.23526 16.6173L15.0353 20.6798L20.164 12.0951L13.364 8.03262L8.23526 16.6173ZM15.7996 13.95V12.325H5.79961V13.95H15.7996ZM5.79961 12.325V22.075H15.7996V12.325H5.79961Z" fill="black" mask="url(#path-4-inside-2_308_1888)"/>
</g>
<g id="Vector_3">
<mask id="path-6-inside-3_308_1888" fill="white">
<path d="M10.7996 23.7C10.3321 23.7 9.93176 23.5407 9.59856 23.2222C9.26536 22.9037 9.09904 22.5213 9.09961 22.075V12.325C9.09961 11.8781 9.26621 11.4954 9.59941 11.1769C9.93261 10.8584 10.3327 10.6994 10.7996 10.7H24.3996C24.8671 10.7 25.2675 10.8592 25.6007 11.1777C25.9339 11.4962 26.1002 11.8786 26.0996 12.325V22.075C26.0996 22.5218 25.933 22.9045 25.5998 23.223C25.2666 23.5415 24.8665 23.7005 24.3996 23.7H10.7996ZM17.5996 18.0125L10.7996 13.95V22.075H24.3996V13.95L17.5996 18.0125ZM17.5996 16.3875L24.3996 12.325H10.7996L17.5996 16.3875ZM10.7996 13.95V12.325V22.075V13.95Z"/>
</mask>
<path d="M10.7996 23.7C10.3321 23.7 9.93176 23.5407 9.59856 23.2222C9.26536 22.9037 9.09904 22.5213 9.09961 22.075V12.325C9.09961 11.8781 9.26621 11.4954 9.59941 11.1769C9.93261 10.8584 10.3327 10.6994 10.7996 10.7H24.3996C24.8671 10.7 25.2675 10.8592 25.6007 11.1777C25.9339 11.4962 26.1002 11.8786 26.0996 12.325V22.075C26.0996 22.5218 25.933 22.9045 25.5998 23.223C25.2666 23.5415 24.8665 23.7005 24.3996 23.7H10.7996ZM17.5996 18.0125L10.7996 13.95V22.075H24.3996V13.95L17.5996 18.0125ZM17.5996 16.3875L24.3996 12.325H10.7996L17.5996 16.3875ZM10.7996 13.95V12.325V22.075V13.95Z" fill="black"/>
<path d="M8.29961 13.95V22.075H13.2996V13.95H8.29961ZM9.09961 22.075L14.0996 22.0813V22.075H9.09961ZM10.7996 10.7L10.7938 15.7H10.7996V10.7ZM26.0996 12.325L21.0996 12.3186V12.325H26.0996ZM24.3996 23.7L24.4054 18.7H24.3996V23.7ZM17.5996 18.0125L15.0353 22.3048L17.5996 23.8368L20.164 22.3048L17.5996 18.0125ZM10.7996 13.95H5.79961V16.7872L8.23526 18.2423L10.7996 13.95ZM10.7996 22.075H5.79961V27.075H10.7996V22.075ZM24.3996 22.075V27.075H29.3996V22.075H24.3996ZM24.3996 13.95H29.3996V5.13848L21.8353 9.65762L24.3996 13.95ZM17.5996 16.3875L15.0353 20.6798L17.5996 22.2118L20.164 20.6798L17.5996 16.3875ZM24.3996 12.325L26.964 16.6173L42.5179 7.32495H24.3996V12.325ZM10.7996 12.325V7.32495H5.79961V12.325H10.7996ZM10.7996 18.7C11.1446 18.7 11.5606 18.7611 11.9968 18.9346C12.4342 19.1086 12.7884 19.3545 13.0535 19.6078L6.14365 26.8366C7.42189 28.0584 9.06549 28.7 10.7996 28.7V18.7ZM13.0535 19.6078C13.3168 19.8596 13.6003 20.2224 13.8091 20.7024C14.0193 21.1859 14.1001 21.6653 14.0996 22.0813L4.09961 22.0686C4.09725 23.9319 4.85842 25.608 6.14365 26.8366L13.0535 19.6078ZM14.0996 22.075V12.325H4.09961V22.075H14.0996ZM14.0996 12.325C14.0996 12.739 14.0188 13.2166 13.809 13.6986C13.6006 14.1772 13.3177 14.5395 13.0543 14.7913L6.1445 7.56253C4.85942 8.79092 4.09961 10.4652 4.09961 12.325H14.0996ZM13.0543 14.7913C12.7893 15.0446 12.4346 15.291 11.9958 15.4653C11.5583 15.6392 11.1406 15.7004 10.7938 15.6999L10.8054 5.69996C9.06813 5.69794 7.42297 6.34047 6.1445 7.56253L13.0543 14.7913ZM10.7996 15.7H24.3996V5.69995H10.7996V15.7ZM24.3996 15.7C24.0546 15.7 23.6386 15.6388 23.2025 15.4653C22.765 15.2913 22.4108 15.0454 22.1458 14.7921L29.0556 7.56334C27.7773 6.34149 26.1337 5.69995 24.3996 5.69995V15.7ZM22.1458 14.7921C21.8824 14.5403 21.5989 14.1775 21.3902 13.6975C21.1799 13.214 21.0991 12.7346 21.0996 12.3186L31.0996 12.3313C31.102 10.468 30.3408 8.79187 29.0556 7.56334L22.1458 14.7921ZM21.0996 12.325V22.075H31.0996V12.325H21.0996ZM21.0996 22.075C21.0996 21.6609 21.1804 21.1833 21.3902 20.7013C21.5986 20.2228 21.8815 19.8604 22.1449 19.6086L29.0547 26.8374C30.3398 25.609 31.0996 23.9347 31.0996 22.075H21.0996ZM22.1449 19.6086C22.4099 19.3553 22.7647 19.1089 23.2034 18.9346C23.641 18.7607 24.0586 18.6996 24.4054 18.7L24.3938 28.6999C26.1311 28.702 27.7763 28.0594 29.0547 26.8374L22.1449 19.6086ZM24.3996 18.7H10.7996V28.7H24.3996V18.7ZM20.164 13.7201L13.364 9.65762L8.23526 18.2423L15.0353 22.3048L20.164 13.7201ZM10.7996 27.075H24.3996V17.075H10.7996V27.075ZM29.3996 22.075V13.95H19.3996V22.075H29.3996ZM21.8353 9.65762L15.0353 13.7201L20.164 22.3048L26.964 18.2423L21.8353 9.65762ZM20.164 20.6798L26.964 16.6173L21.8353 8.03262L15.0353 12.0951L20.164 20.6798ZM24.3996 7.32495H10.7996V17.325H24.3996V7.32495ZM8.23526 16.6173L15.0353 20.6798L20.164 12.0951L13.364 8.03262L8.23526 16.6173ZM15.7996 13.95V12.325H5.79961V13.95H15.7996ZM5.79961 12.325V22.075H15.7996V12.325H5.79961Z" fill="black" mask="url(#path-6-inside-3_308_1888)"/>
</g>
</g>
</g>
</g>
</svg>
