<svg width="28" height="29" viewBox="0 0 35 35" fill="none" xmlns="http://www.w3.org/2000/svg">
<g id="entypo-social:linkedin-with-circle">
<path id="Vector" d="M17.2999 1.37158C8.39252 1.37158 1.17188 8.59222 1.17188 17.4996C1.17188 26.4069 8.39252 33.6276 17.2999 33.6276C26.2072 33.6276 33.4279 26.4069 33.4279 17.4996C33.4279 8.59222 26.2072 1.37158 17.2999 1.37158ZM13.3519 24.1843H10.086V13.6742H13.3519V24.1843ZM11.6988 12.384C10.6672 12.384 10.0003 11.6532 10.0003 10.7493C10.0003 9.82702 10.6874 9.11806 11.7408 9.11806C12.7941 9.11806 13.4392 9.82702 13.4594 10.7493C13.4594 11.6532 12.7941 12.384 11.6988 12.384ZM25.2799 24.1843H22.014V18.3597C22.014 17.004 21.5402 16.0833 20.3592 16.0833C19.457 16.0833 18.9211 16.7066 18.6842 17.3064C18.5968 17.5197 18.575 17.8221 18.575 18.1229V24.1826H15.3074V17.0258C15.3074 15.7137 15.2654 14.6167 15.2217 13.6725H18.0592L18.2088 15.1325H18.2743C18.7044 14.447 19.7577 13.4357 21.52 13.4357C23.6688 13.4357 25.2799 14.8754 25.2799 17.97V24.1843Z" fill="#F8F8F8"/>
</g>
</svg>
